{
  "source": "C:\\Users\\Peter\\Desktop\\stuff\\MIUN\\quantitative_research\\video_compression\\videos\\BVI-HD\\BVI-HD_CDVL_videos\\ORIG\\Typing_1920x1080_60fps.mp4",
  "output": "C:\\Users\\Peter\\Desktop\\stuff\\MIUN\\quantitative_research\\video_compression\\compressed_videos\\BVI-HD\\vp9\\8\\Typing_1920x1080_60fps_vp9.webm",
  "codec": "vp9",
  "ok": "Input #0, mov,mp4,m4a,3gp,3g2,mj2, from 'C:\\Users\\Peter\\Desktop\\stuff\\MIUN\\quantitative_research\\video_compression\\videos\\BVI-HD\\BVI-HD_CDVL_videos\\ORIG\\Typing_1920x1080_60fps.mp4':\n  Metadata:\n    major_brand     : isom\n    minor_version   : 512\n    compatible_brands: isomiso2avc1mp41\n    encoder         : Lavf54.28.101\n  Duration: 00:00:05.00, start: 0.000000, bitrate: 203453 kb/s\n  Stream #0:0[0x1](und): Video: h264 (High 4:4:4 Predictive) (avc1 / 0x31637661), yuv420p(progressive), 1920x1080, 203448 kb/s, 60 fps, 60 tbr, 60 tbn (default)\n    Metadata:\n      handler_name    : VideoHandler\n      vendor_id       : [0][0][0][0]\n[out#0/webm @ 0000028c07659880] Codec AVOption b:a (set bitrate (in bits/s)) has not been used for any stream. The most likely reason is either wrong type (e.g. a video option with no video streams) or that it is a private option of some decoder which was not actually used for any stream.\nStream mapping:\n  Stream #0:0 -> #0:0 (h264 (native) -> vp9 (libvpx-vp9))\nPress [q] to stop, [?] for help\n[libvpx-vp9 @ 0000028c09631b80] v1.15.2-100-g40561f514\nOutput #0, webm, to 'C:\\Users\\Peter\\Desktop\\stuff\\MIUN\\quantitative_research\\video_compression\\compressed_videos\\BVI-HD\\vp9\\8\\Typing_1920x1080_60fps_vp9.webm':\n  Metadata:\n    major_brand     : isom\n    minor_version   : 512\n    compatible_brands: isomiso2avc1mp41\n    encoder         : Lavf62.3.100\n  Stream #0:0(und): Video: vp9, yuv420p(tv, progressive), 1920x1080, q=2-31, 8000 kb/s, 60 fps, 1k tbn (default)\n    Metadata:\n      encoder         : Lavc62.11.100 libvpx-vp9\n      handler_name    : VideoHandler\n      vendor_id       : [0][0][0][0]\n    Side data:\n      cpb: bitrate max/min/avg: 0/0/0 buffer size: 8000000 vbv_delay: N/A\nframe=    1 fps=0.0 q=12.0 size=       1KiB time=00:00:00.01 bitrate= 303.8kbits/s speed=0.0318x elapsed=0:00:00.52    \nframe=    8 fps=7.5 q=23.0 size=       1KiB time=00:00:00.13 bitrate=  38.0kbits/s speed=0.125x elapsed=0:00:01.07    \nframe=   12 fps=7.6 q=24.0 size=       1KiB time=00:00:00.20 bitrate=  25.3kbits/s speed=0.127x elapsed=0:00:01.57    \nframe=   17 fps=8.1 q=23.0 size=       1KiB time=00:00:00.28 bitrate=  17.9kbits/s speed=0.135x elapsed=0:00:02.09    \nframe=   22 fps=8.3 q=24.0 size=       1KiB time=00:00:00.36 bitrate=  13.8kbits/s speed=0.139x elapsed=0:00:02.63    \nframe=   25 fps=7.9 q=13.0 size=       1KiB time=00:00:00.41 bitrate=  12.2kbits/s speed=0.132x elapsed=0:00:03.15    \nframe=   30 fps=8.2 q=23.0 size=       1KiB time=00:00:00.50 bitrate=  10.1kbits/s speed=0.136x elapsed=0:00:03.68    \nframe=   35 fps=8.3 q=23.0 size=       1KiB time=00:00:00.58 bitrate=   8.7kbits/s speed=0.139x elapsed=0:00:04.20    \nframe=   38 fps=8.1 q=20.0 size=       1KiB time=00:00:00.63 bitrate=   8.0kbits/s speed=0.134x elapsed=0:00:04.71    \nframe=   43 fps=8.2 q=22.0 size=       1KiB time=00:00:00.71 bitrate=   7.1kbits/s speed=0.137x elapsed=0:00:05.24    \nframe=   48 fps=8.3 q=21.0 size=       1KiB time=00:00:00.80 bitrate=   6.3kbits/s speed=0.138x elapsed=0:00:05.78    \nframe=   52 fps=8.2 q=20.0 size=       1KiB time=00:00:00.86 bitrate=   5.8kbits/s speed=0.137x elapsed=0:00:06.32    \nframe=   56 fps=8.2 q=20.0 size=       1KiB time=00:00:00.93 bitrate=   5.4kbits/s speed=0.136x elapsed=0:00:06.86    \nframe=   60 fps=8.1 q=21.0 size=       1KiB time=00:00:01.00 bitrate=   5.1kbits/s speed=0.135x elapsed=0:00:07.38    \nframe=   65 fps=8.2 q=20.0 size=       1KiB time=00:00:01.08 bitrate=   4.7kbits/s speed=0.137x elapsed=0:00:07.93    \nframe=   70 fps=8.3 q=22.0 size=       1KiB time=00:00:01.15 bitrate=   4.4kbits/s speed=0.136x elapsed=0:00:08.46    \nframe=   73 fps=8.1 q=8.0 size=       1KiB time=00:00:01.21 bitrate=   4.2kbits/s speed=0.135x elapsed=0:00:08.98    \nframe=   78 fps=8.2 q=22.0 size=       1KiB time=00:00:01.30 bitrate=   3.9kbits/s speed=0.137x elapsed=0:00:09.51    \nframe=   83 fps=8.3 q=22.0 size=       1KiB time=00:00:01.38 bitrate=   3.7kbits/s speed=0.138x elapsed=0:00:10.03    \nframe=   87 fps=8.2 q=23.0 size=       1KiB time=00:00:01.45 bitrate=   3.5kbits/s speed=0.137x elapsed=0:00:10.56    \nframe=   92 fps=8.3 q=22.0 size=       1KiB time=00:00:01.53 bitrate=   3.3kbits/s speed=0.138x elapsed=0:00:11.10    \nframe=   96 fps=8.3 q=22.0 size=       1KiB time=00:00:01.60 bitrate=   3.2kbits/s speed=0.138x elapsed=0:00:11.61    \nframe=  100 fps=8.2 q=22.0 size=       1KiB time=00:00:01.66 bitrate=   3.0kbits/s speed=0.137x elapsed=0:00:12.14    \nframe=  105 fps=8.3 q=24.0 size=       1KiB time=00:00:01.75 bitrate=   2.9kbits/s speed=0.138x elapsed=0:00:12.67    \nframe=  109 fps=8.3 q=8.0 size=       1KiB time=00:00:01.81 bitrate=   2.8kbits/s speed=0.138x elapsed=0:00:13.19    \nframe=  114 fps=8.3 q=24.0 size=       1KiB time=00:00:01.90 bitrate=   2.7kbits/s speed=0.138x elapsed=0:00:13.72    \nframe=  118 fps=8.3 q=23.0 size=       1KiB time=00:00:01.96 bitrate=   2.6kbits/s speed=0.138x elapsed=0:00:14.23    \nframe=  122 fps=8.3 q=20.0 size=       1KiB time=00:00:02.03 bitrate=   2.5kbits/s speed=0.138x elapsed=0:00:14.76    \nframe=  127 fps=8.3 q=24.0 size=       1KiB time=00:00:02.11 bitrate=   2.4kbits/s speed=0.138x elapsed=0:00:15.28    \nframe=  132 fps=8.4 q=23.0 size=    1792KiB time=00:00:02.20 bitrate=6672.8kbits/s speed=0.139x elapsed=0:00:15.79    \nframe=  137 fps=8.4 q=22.0 size=    1792KiB time=00:00:02.28 bitrate=6429.2kbits/s speed=0.14x elapsed=0:00:16.31    \nframe=  142 fps=8.4 q=21.0 size=    1792KiB time=00:00:02.36 bitrate=6202.8kbits/s speed=0.141x elapsed=0:00:16.84    \nframe=  147 fps=8.5 q=21.0 size=    1792KiB time=00:00:02.45 bitrate=5991.9kbits/s speed=0.141x elapsed=0:00:17.39    \nframe=  151 fps=8.4 q=21.0 size=    1792KiB time=00:00:02.51 bitrate=5833.1kbits/s speed=0.14x elapsed=0:00:17.93    \nframe=  156 fps=8.4 q=20.0 size=    1792KiB time=00:00:02.60 bitrate=5646.2kbits/s speed=0.141x elapsed=0:00:18.48    \nframe=  160 fps=8.4 q=19.0 size=    1792KiB time=00:00:02.66 bitrate=5505.0kbits/s speed=0.14x elapsed=0:00:19.03    \nframe=  164 fps=8.4 q=8.0 size=    1792KiB time=00:00:02.73 bitrate=5370.8kbits/s speed=0.14x elapsed=0:00:19.56    \nframe=  169 fps=8.4 q=19.0 size=    1792KiB time=00:00:02.81 bitrate=5211.9kbits/s speed=0.14x elapsed=0:00:20.10    \nframe=  173 fps=8.4 q=19.0 size=    1792KiB time=00:00:02.88 bitrate=5091.4kbits/s speed=0.14x elapsed=0:00:20.64    \nframe=  177 fps=8.4 q=19.0 size=    1792KiB time=00:00:02.95 bitrate=4976.3kbits/s speed=0.139x elapsed=0:00:21.16    \nframe=  182 fps=8.4 q=20.0 size=    1792KiB time=00:00:03.03 bitrate=4839.6kbits/s speed=0.14x elapsed=0:00:21.70    \nframe=  187 fps=8.4 q=22.0 size=    1792KiB time=00:00:03.11 bitrate=4710.2kbits/s speed=0.14x elapsed=0:00:22.24    \nframe=  191 fps=8.4 q=21.0 size=    1792KiB time=00:00:03.18 bitrate=4611.5kbits/s speed=0.14x elapsed=0:00:22.79    \nframe=  196 fps=8.4 q=20.0 size=    1792KiB time=00:00:03.25 bitrate=4516.9kbits/s speed=0.139x elapsed=0:00:23.31    \nframe=  199 fps=8.4 q=21.0 size=    1792KiB time=00:00:03.31 bitrate=4426.1kbits/s speed=0.139x elapsed=0:00:23.83    \nframe=  204 fps=8.4 q=19.0 size=    1792KiB time=00:00:03.40 bitrate=4317.7kbits/s speed=0.14x elapsed=0:00:24.34    \nframe=  208 fps=8.4 q=21.0 size=    1792KiB time=00:00:03.46 bitrate=4234.6kbits/s speed=0.139x elapsed=0:00:24.87    \nframe=  213 fps=8.4 q=22.0 size=    1792KiB time=00:00:03.55 bitrate=4135.2kbits/s speed=0.14x elapsed=0:00:25.40    \nframe=  218 fps=8.4 q=22.0 size=    1792KiB time=00:00:03.63 bitrate=4040.4kbits/s speed=0.14x elapsed=0:00:25.94    \nframe=  223 fps=8.4 q=22.0 size=    1792KiB time=00:00:03.70 bitrate=3967.6kbits/s speed=0.14x elapsed=0:00:26.47    \nframe=  226 fps=8.4 q=20.0 size=    1792KiB time=00:00:03.76 bitrate=3897.4kbits/s speed=0.139x elapsed=0:00:27.01    \nframe=  230 fps=8.3 q=21.0 size=    1792KiB time=00:00:03.83 bitrate=3829.6kbits/s speed=0.139x elapsed=0:00:27.56    \nframe=  233 fps=8.3 q=20.0 size=    1792KiB time=00:00:03.88 bitrate=3780.3kbits/s speed=0.138x elapsed=0:00:28.07    \nframe=  235 fps=8.2 q=20.0 size=    1792KiB time=00:00:03.91 bitrate=3748.1kbits/s speed=0.137x elapsed=0:00:28.63    \nframe=  237 fps=8.1 q=23.0 size=    1792KiB time=00:00:03.95 bitrate=3716.5kbits/s speed=0.135x elapsed=0:00:29.17    \nframe=  241 fps=8.1 q=21.0 size=    1792KiB time=00:00:04.01 bitrate=3654.8kbits/s speed=0.135x elapsed=0:00:29.71    \nframe=  245 fps=8.1 q=22.0 size=    1792KiB time=00:00:04.08 bitrate=3595.1kbits/s speed=0.135x elapsed=0:00:30.28    \nframe=  247 fps=8.0 q=20.0 size=    1792KiB time=00:00:04.11 bitrate=3566.0kbits/s speed=0.133x elapsed=0:00:30.90    \nframe=  252 fps=8.0 q=21.0 size=    1792KiB time=00:00:04.20 bitrate=3495.3kbits/s speed=0.134x elapsed=0:00:31.43    \nframe=  256 fps=8.0 q=19.0 size=    1792KiB time=00:00:04.26 bitrate=3440.6kbits/s speed=0.133x elapsed=0:00:32.00    \nframe=  260 fps=8.0 q=22.0 size=    3840KiB time=00:00:04.31 bitrate=7287.4kbits/s speed=0.133x elapsed=0:00:32.56    \nframe=  264 fps=8.0 q=19.0 size=    3840KiB time=00:00:04.40 bitrate=7149.4kbits/s speed=0.133x elapsed=0:00:33.12    \nframe=  268 fps=8.0 q=21.0 size=    3840KiB time=00:00:04.46 bitrate=7042.7kbits/s speed=0.133x elapsed=0:00:33.67    \nframe=  271 fps=7.9 q=20.0 size=    3840KiB time=00:00:04.51 bitrate=6964.7kbits/s speed=0.132x elapsed=0:00:34.24    \nframe=  274 fps=7.9 q=22.0 size=    3840KiB time=00:00:04.56 bitrate=6888.5kbits/s speed=0.131x elapsed=0:00:34.82    \nframe=  276 fps=7.8 q=21.0 size=    3840KiB time=00:00:04.60 bitrate=6838.5kbits/s speed=0.13x elapsed=0:00:35.37    \nframe=  276 fps=7.7 q=21.0 size=    3840KiB time=00:00:04.60 bitrate=6838.5kbits/s speed=0.128x elapsed=0:00:35.90    \nframe=  276 fps=7.6 q=21.0 size=    3840KiB time=00:00:04.60 bitrate=6838.5kbits/s speed=0.126x elapsed=0:00:36.47    \nframe=  276 fps=7.5 q=21.0 size=    3840KiB time=00:00:04.60 bitrate=6838.5kbits/s speed=0.124x elapsed=0:00:37.01    \nframe=  276 fps=7.4 q=21.0 size=    3840KiB time=00:00:04.60 bitrate=6838.5kbits/s speed=0.123x elapsed=0:00:37.54    \nframe=  276 fps=7.3 q=21.0 size=    3840KiB time=00:00:04.60 bitrate=6838.5kbits/s speed=0.121x elapsed=0:00:38.06    \nframe=  276 fps=7.1 q=21.0 size=    3840KiB time=00:00:04.60 bitrate=6838.5kbits/s speed=0.119x elapsed=0:00:38.64    \nframe=  276 fps=7.0 q=21.0 size=    3840KiB time=00:00:04.60 bitrate=6838.5kbits/s speed=0.117x elapsed=0:00:39.18    \n[out#0/webm @ 0000028c07659880] video:4792KiB audio:0KiB subtitle:0KiB other streams:0KiB global headers:0KiB muxing overhead: 0.058120%\nframe=  300 fps=7.6 q=22.0 Lsize=    4795KiB time=00:00:05.00 bitrate=7855.9kbits/s speed=0.127x elapsed=0:00:39.30    \n",
  "seconds": 39.595932483673096,
  "probe_out": {}
}